PathFileType	4	(X/Y/Z)	53_2_23_p1_0-168_filt_butterworth.trc
DataRate	CameraRate	NumFrames	NumMarkers	Units	OrigDataRate	OrigDataStartFrame	OrigNumFrames
46.0	46.0	6	27	m	46.0	21	168
Frame#	Time	RHip			RKnee			RAnkle			RBigToe			RSmallToe			RHeel			LHip			LKnee			LAnkle			LBigToe			LSmallToe			LHeel			Neck			Head			Nose			RShoulder			RElbow			RWrist			RThumb			RIndex			RPinky			LShoulder			LElbow			LWrist			LThumb			LIndex			LPinky			
		X1	Y1	Z1	X2	Y2	Z2	X3	Y3	Z3	X4	Y4	Z4	X5	Y5	Z5	X6	Y6	Z6	X7	Y7	Z7	X8	Y8	Z8	X9	Y9	Z9	X10	Y10	Z10	X11	Y11	Z11	X12	Y12	Z12	X13	Y13	Z13	X14	Y14	Z14	X15	Y15	Z15	X16	Y16	Z16	X17	Y17	Z17	X18	Y18	Z18	X19	Y19	Z19	X20	Y20	Z20	X21	Y21	Z21	X22	Y22	Z22	X23	Y23	Z23	X24	Y24	Z24	X25	Y25	Z25	X26	Y26	Z26	X27	Y27	Z27	
21	0.4565217391304347	0.4068614003710089	0.808896446897683	0.7185589747682587	0.4009499071235613	0.3655698259650468	0.8290514434157983	0.3575458054146323	-0.03049469700797039	0.8921013343553722	0.321285959059263	-0.04586821523241464	0.7404245608238738	0.3773611233923349	-0.057169878759595484	0.7604484543279119	0.32835895367098655	-0.10327232476208853	0.9622475502534638	0.2057976065233551	0.8176012948969147	0.724187398038599	0.15488617119663323	0.3707447969510254	0.8446369078309822	0.14808972737651518	-0.02288987824212048	0.8802830755797806	0.17710290609961804	-0.03641057006347109	0.7493623771892375	0.11086056628460383	-0.02862855192649416	0.7794669479768053	0.16388390909218453	-0.06034527122819425	0.9055512326793996	0.32310652374374993	1.3630370967030514	0.6870071173353187	0.32444323051067314	1.5966156312398416	0.6338696519597267	0.32116232571765135	1.475265164569285	0.5288885079191037	0.4688764966399134	1.3056673004007326	0.7061209992325599	0.5084696768874923	1.0241029219640507	0.6902460691998896	0.3413853783176656	0.9119302496134938	0.5564347337216944	0.2564337510390452	0.8857481112923857	0.5428791024652889	0.24453481120478804	0.8531166528635923	0.5302889318107796	0.2621142776898049	0.8424064658097948	0.5300575251717892	0.1722508116630883	1.3100614048278212	0.7512515858736041	0.1284760831699286	1.0491680217466415	0.7164617112494988	0.22099808637902682	0.9224841804494046	0.569931113610435	0.27614157260240907	0.8982260128767382	0.5295283129567683	0.29307453515829923	0.8662388981898075	0.5044329919897381	0.2739502443144996	0.8396551371310202	0.5453608391079078	
22	0.4782608695652174	0.40648348454070904	0.8091697264467353	0.717601385203861	0.4009515581186785	0.3655592531311481	0.8291037246825	0.3575466787512386	-0.030709233856875087	0.8919669482091206	0.3212242309696853	-0.045649762421071285	0.7403937945767616	0.377140531208248	-0.05731830589917339	0.7598426501018712	0.3283538780353495	-0.10357979536289556	0.9621095683700185	0.2060481524964267	0.8171934413872296	0.7241793959256553	0.15470860494577116	0.3705045536580204	0.8444131136521363	0.14806918781872916	-0.022968645830302795	0.8803055697640699	0.17709405509834603	-0.03646737714699244	0.7494583343827093	0.1106921996339402	-0.02928731943085837	0.7795549880950843	0.16390669137601527	-0.060304648516468634	0.9056272814305648	0.32315110704784905	1.3630428691933314	0.6870849388085498	0.32547084196335174	1.5965745267345288	0.6333611690671268	0.3211591063502558	1.4753705858092123	0.5288593137432387	0.4688947582518393	1.3051007227236964	0.7062959127766794	0.5071831683320709	1.0245715881862316	0.6877229604806471	0.34053263087042596	0.9119001090257607	0.5538582355145536	0.2560191911338731	0.8861098002798392	0.5412818688080228	0.24448374489890012	0.8538547470144848	0.52726815260169	0.2606740582102477	0.8429083124389273	0.5278621106800316	0.1722822073111255	1.3100987674481395	0.7512446570424709	0.12843721340484018	1.0498039582150376	0.7162653519164124	0.22100397087957863	0.9225511757611228	0.5696724785382299	0.2761060550033052	0.8990475208970471	0.5290128673669036	0.2930475702030668	0.8665257405957137	0.5054106282728456	0.27248291134299696	0.8410035950302729	0.5426772481064799	
23	0.5	0.4060767558889938	0.8092943915852009	0.7165742468860412	0.40094953641167136	0.3655589278943624	0.8291457287107151	0.35754046240787996	-0.030875790645274015	0.8918604833728487	0.321169006542007	-0.04526430691334933	0.7403662835813222	0.37668293164575517	-0.05711047118046201	0.7577926956298746	0.3283453654156108	-0.10380547531556783	0.962007596168883	0.2063011752875284	0.816781391746526	0.7241953488842586	0.1545896139385917	0.37021834023135247	0.8441903045147273	0.1480564176223508	-0.023015555285528497	0.8803283685720491	0.17707597945929804	-0.036535962392397967	0.7495697345536704	0.11045172042987624	-0.030179464863580405	0.7797226095906685	0.16401339671170703	-0.06012766151989633	0.9054861526664988	0.3232967846142779	1.3630158805981158	0.687470370554246	0.3266271179591944	1.5965303129058421	0.6324212711887544	0.3211469139482118	1.475332758007171	0.5288513469784736	0.4689111103667035	1.3043899049461771	0.7065135619649838	0.5057812009731225	1.0249839076997094	0.6854547993614528	0.33965196556911587	0.911614634591349	0.5513202094534436	0.25539548110391747	0.8864449511670329	0.5391088529824888	0.2443600305621339	0.8545989215816954	0.5230242194981393	0.25899254672995264	0.8433055320415641	0.5255824869678936	0.17232346421516181	1.3102030861597191	0.751233343152327	0.12811028980278158	1.0504480274137085	0.7147017283770281	0.2212895150001355	0.9228222373585317	0.5685148480025938	0.27623102491896967	0.8995735625234347	0.5291708005912118	0.293109875644418	0.8665777956971611	0.5062991534604839	0.2708007804977747	0.8421890117509172	0.5399404628843856	
24	0.5217391304347826	0.4056516798458135	0.809284464974701	0.71546536283113	0.4009418475684536	0.3655642422636941	0.8291755654541404	0.3575315715548092	-0.03100258885323401	0.8917744240379272	0.32113949301944833	-0.0448230669650195	0.7403593807494527	0.37589986105219575	-0.05655802728141971	0.7553167978514602	0.328340075296939	-0.10394894746289865	0.9619403654569713	0.20655750827284772	0.816375004157213	0.724218381859931	0.1545459664005249	0.3698899269618261	0.8439704108448074	0.14805194092642218	-0.02302969667140574	0.8803485970847346	0.1770552766554	-0.03660372019700653	0.7496751765520565	0.11016483490064478	-0.03125445522483982	0.7799330291816341	0.16420750504247036	-0.05985056607933092	0.9051393232454127	0.32346346454389785	1.362987398517879	0.6879344122301836	0.32757713780435027	1.5964812418277214	0.6306413225955689	0.3211265764169521	1.4750454095598644	0.528918546633806	0.4689134946284751	1.303667772976282	0.7067455884474827	0.5044573942685688	1.0252097331348264	0.683892386397205	0.3388904889120198	0.9109599809783354	0.5492783341884089	0.25472872788825807	0.8862855687558692	0.5369594027281462	0.24428976344221287	0.8550442206441936	0.5182885623538961	0.2574152341992411	0.8435625999403061	0.522887690095583	0.1723630039094146	1.3103184675395785	0.7512193551231015	0.12762835302206255	1.0509213918621154	0.7124782811323187	0.2217647409785966	0.9232211388594456	0.5668367873186846	0.27630429854201843	0.8995929622834715	0.5293469738391795	0.29301483372550347	0.8664641640464539	0.5061204397063033	0.2691409569333713	0.8429254174046878	0.5374638904835861	
25	0.5434782608695652	0.40521623153166625	0.8093117527183986	0.7143469405884216	0.40092495735538924	0.3655933573382487	0.82917185456155	0.357525748221445	-0.031094784820478158	0.8917097222697908	0.32115439559375397	-0.04457608760361042	0.7403624678861469	0.37500302284392373	-0.05584826358083177	0.7531855356403113	0.3283393642749851	-0.10402499134036314	0.9619121542705786	0.20681540893872152	0.816008612737501	0.7242399500493245	0.15456757028526866	0.36953181219718373	0.843758587788212	0.148056672828082	-0.023013638142622694	0.8803654958542129	0.17703631714196474	-0.03665691677473593	0.7497500154629024	0.10988825039919675	-0.03233704507471087	0.7801654352113949	0.1643960041109315	-0.05967855545825907	0.904840755323563	0.32345865325406525	1.3630268809502495	0.687809043421823	0.32821599324907424	1.596430482757827	0.6281997716099532	0.32111359014298335	1.4745357383199167	0.5290876814007616	0.468908164990455	1.3030708431917712	0.7069524029211642	0.503349491119463	1.0251224431143882	0.6836516111920811	0.3382418004535667	0.9099486763651481	0.547667378939303	0.254093846596497	0.885159242264398	0.5348442650701004	0.2443930117702856	0.855150105591688	0.5136404595352814	0.2562585049505539	0.843809549058783	0.5196969498368625	0.17237990155600286	1.3102823554060716	0.7512075571388692	0.12711479127005323	1.0509886638279144	0.7101678187464089	0.22241393624491904	0.9235957241115074	0.5649055062123525	0.2763616550307798	0.8988454916112357	0.5283298251998341	0.2926934044358723	0.8661990280501344	0.5047625389547168	0.26803338275992455	0.8429560040344245	0.5355571572729874	
26	0.5652173913043478	0.4047809613810406	0.8095045475899062	0.7132822271375829	0.40089176031806734	0.3656594770363078	0.8291103039115498	0.3575238611919804	-0.031156227166239933	0.8916712074817237	0.3212180278068768	-0.04468603043769905	0.7404003514770215	0.37438099256438123	-0.05515167259278915	0.7513379126458507	0.32833832792458467	-0.10405014318334954	0.9619153781493935	0.2070689084778593	0.8156996754380916	0.7242658728835201	0.15458853459157923	0.3691639116705254	0.8435698895461734	0.14807097746267323	-0.02296572842256553	0.8803782406213214	0.17702228962962002	-0.0366905580788787	0.7497900376625493	0.1097087012469358	-0.03307243313324894	0.7803775608074017	0.164483603135032	-0.05973644367418325	0.904811559035408	0.3231549046585719	1.3631529609739725	0.6866837175143499	0.328518747145058	1.5963831621496294	0.6255866657099554	0.32114815879980285	1.473867517208876	0.529423487510051	0.4689485337704611	1.3026305712094592	0.7070938002674652	0.502316126081406	1.024736727505537	0.6848812976412738	0.33761493559998945	0.9088171016632226	0.5461576581501786	0.2534260394268016	0.8829844050262408	0.5323873887101751	0.24451015663640274	0.8549301662248334	0.5096273366915078	0.2557188434032566	0.8440559148657965	0.5165077507735887	0.17236144265283168	1.3099893731769214	0.7512032967426593	0.1266475687721902	1.0504619905626265	0.7079606745113927	0.2233382701778826	0.9239749380410094	0.5623789479028497	0.2764357827229172	0.8970628924195053	0.5259827118468761	0.2921091806574294	0.8657044706860404	0.502668642464143	0.26789606809999966	0.8422032794667773	0.5345761802596988	
